<svg width="40" height="40" viewBox="0 0 40 40" fill="none" xmlns="http://www.w3.org/2000/svg">
<path d="M3.75 17.5H1.25C0.56 17.5 0 18.06 0 18.75V21.25C0 21.94 0.56 22.5 1.25 22.5H3.75C4.44 22.5 5 21.94 5 21.25V18.75C5 18.06 4.44 17.5 3.75 17.5ZM38.75 18.75H12.5C11.81 18.75 11.25 19.31 11.25 20C11.25 20.69 11.81 21.25 12.5 21.25H38.75C39.44 21.25 40 20.69 40 20C40 19.31 39.44 18.75 38.75 18.75ZM3.75 27.5H1.25C0.56 27.5 0 28.06 0 28.75V31.25C0 31.94 0.56 32.5 1.25 32.5H3.75C4.44 32.5 5 31.94 5 31.25V28.75C5 28.06 4.44 27.5 3.75 27.5ZM38.75 28.75H12.5C11.81 28.75 11.25 29.31 11.25 30C11.25 30.69 11.81 31.25 12.5 31.25H38.75C39.44 31.25 40 30.69 40 30C40 29.31 39.44 28.75 38.75 28.75ZM3.75 7.5H1.25C0.56 7.5 0 8.06 0 8.75V11.25C0 11.94 0.56 12.5 1.25 12.5H3.75C4.44 12.5 5 11.94 5 11.25V8.75C5 8.06 4.44 7.5 3.75 7.5ZM12.5 11.25H38.75C39.44 11.25 40 10.69 40 10C40 9.31 39.44 8.75 38.75 8.75H12.5C11.81 8.75 11.25 9.31 11.25 10C11.25 10.69 11.81 11.25 12.5 11.25Z" fill="white"/>
</svg>
