<svg width="30" height="30" viewBox="0 0 30 30" fill="none" xmlns="http://www.w3.org/2000/svg">
<g clip-path="url(#clip0_11_241)">
<path d="M6.50012 12.9954C6.22414 12.9954 6.00013 13.2194 6.00013 13.4954V16.4954C6.00013 16.7714 6.22414 16.9954 6.50012 16.9954C6.7761 16.9954 7.00011 16.7714 7.00011 16.4954V13.4954C7.00017 13.2194 6.77616 12.9954 6.50012 12.9954Z" fill="white"/>
<path d="M6.55415 0.13476L1.82652 2.02632C0.495011 2.51934 0 3.18838 0 4.49487V25.4998C0 26.8064 0.495011 27.4754 1.81404 27.9644L6.56364 29.8645C6.79866 29.9535 7.03462 29.9985 7.26566 29.9985C8.27069 29.9985 9.00019 29.1585 9.00019 28.0009V1.99486C9.00019 0.572817 7.86615 -0.359196 6.55415 0.13476ZM8.00015 28.0009C8.00015 28.5974 7.70513 28.9984 7.26566 28.9984C7.15615 28.9984 7.03814 28.9749 6.92564 28.9329L2.17405 27.0314C1.23055 26.6819 1.00004 26.3809 1.00004 25.4998V4.49487C1.00004 3.61384 1.23055 3.31336 2.18606 2.95933L6.91614 1.0673C7.03814 1.0213 7.15562 0.997807 7.26514 0.997807C7.70466 0.997807 8.00015 1.3983 8.00015 1.99486V28.0009Z" fill="white"/>
<path d="M10.4377 2.99516H17.5003C18.3273 2.99516 19.0004 3.66818 19.0004 4.49519V11.9954C19.0004 12.2713 19.2239 12.4953 19.5004 12.4953C19.7769 12.4953 20.0003 12.2713 20.0003 11.9954V4.49519C20.0003 3.11668 18.8788 1.99512 17.5003 1.99512H10.4377C10.1617 1.99512 9.93771 2.21913 9.93771 2.49511C9.93771 2.77109 10.1617 2.99516 10.4377 2.99516Z" fill="white"/>
<path d="M19.5004 17.4955C19.2239 17.4955 19.0004 17.7195 19.0004 17.9955V25.4956C19.0004 26.3226 18.3274 26.9957 17.5004 26.9957H10.5002C10.2242 26.9957 10.0002 27.2197 10.0002 27.4957C10.0002 27.7716 10.2242 27.9957 10.5002 27.9957H17.5004C18.8789 27.9957 20.0005 26.8741 20.0005 25.4956V17.9954C20.0004 17.7195 19.7769 17.4955 19.5004 17.4955Z" fill="white"/>
<path d="M29.9621 14.8043C29.9367 14.7428 29.9002 14.6878 29.8536 14.6413L24.854 9.64123C24.6585 9.44576 24.3425 9.44576 24.147 9.64123C23.9515 9.83677 23.9515 10.1528 24.147 10.3482L28.2936 14.4953H11.5003C11.2243 14.4953 11.0003 14.7193 11.0003 14.9953C11.0003 15.2713 11.2243 15.4953 11.5003 15.4953H28.2937L24.147 19.6419C23.9515 19.8375 23.9515 20.1535 24.147 20.3489C24.2445 20.4464 24.3725 20.4954 24.5005 20.4954C24.6285 20.4954 24.7565 20.4464 24.854 20.3489L29.8536 15.3493C29.9002 15.3028 29.9367 15.2478 29.9621 15.1863C30.0127 15.0644 30.0127 14.9264 29.9621 14.8043Z" fill="white"/>
</g>
<defs>
<clipPath id="clip0_11_241">
<rect width="30" height="30" fill="white"/>
</clipPath>
</defs>
</svg>
