<svg width="40" height="40" viewBox="0 0 40 40" fill="none" xmlns="http://www.w3.org/2000/svg">
<path d="M6.92308 2.69231C6.92308 2.07693 6.38462 1.53847 5.76923 1.53847H3.46154C2.84616 1.53847 2.30769 2.07693 2.30769 2.69231V37.3077C2.30769 37.9231 2.84616 38.4615 3.46154 38.4615H5.76923C6.38462 38.4615 6.92308 37.9231 6.92308 37.3077V2.69231Z" fill="white"/>
<path d="M36.5385 5.92308C24.2308 12.3846 25.6154 -0.846152 10.7692 4.30769C10.3077 4.46154 10 4.92308 10 5.38462V23.3077C10 23.8462 10.5385 24.2308 11 24C25.7692 19.0769 24.2308 32.6154 37.0769 25.3846C37.4615 25.1538 37.6923 24.7692 37.6923 24.3846V6.53846C37.6923 6 37.0769 5.61539 36.5385 5.92308Z" fill="white"/>
</svg>
